<?xml version="1.0" standalone="no"?>
<!DOCTYPE svg PUBLIC "-//W3C//DTD SVG 20010904//EN"
 "http://www.w3.org/TR/2001/REC-SVG-20010904/DTD/svg10.dtd">
<svg version="1.0" xmlns="http://www.w3.org/2000/svg"
 width="880.000000pt" height="801.000000pt" viewBox="0 0 880.000000 801.000000"
 preserveAspectRatio="xMidYMid meet">
<metadata>
Created by potrace 1.15, written by Peter Selinger 2001-2017
</metadata>
<g transform="translate(0.000000,801.000000) scale(0.100000,-0.100000)"
fill="#000000" stroke="none">
<path d="M4386 7403 c-25 -93 -53 -197 -61 -233 -30 -133 -75 -432 -100 -660
-50 -462 -56 -510 -76 -555 -11 -24 -35 -121 -54 -216 -31 -155 -35 -189 -35
-334 l0 -162 -70 -89 c-38 -49 -133 -170 -210 -269 l-140 -180 0 -92 c0 -88 1
-93 23 -98 25 -6 382 -65 391 -65 3 0 6 -169 6 -375 0 -327 -2 -375 -15 -375
-9 0 -15 -9 -15 -24 0 -13 7 -26 15 -30 10 -4 15 -19 15 -48 0 -37 -10 -57
-68 -139 -37 -52 -130 -188 -207 -302 -77 -113 -145 -206 -152 -207 -6 0 -23
4 -37 10 l-26 10 0 168 c0 172 -28 519 -55 691 -17 102 -73 331 -84 344 -7 7
-55 -190 -80 -323 -16 -87 -51 -451 -58 -605 -3 -77 -6 -141 -7 -141 -2 -2
-805 370 -884 410 -40 20 -75 36 -77 36 -2 0 -6 -71 -8 -157 l-3 -158 -2 165
c-1 91 -6 172 -12 180 -19 30 -30 -42 -30 -196 0 -88 -4 -164 -10 -175 -7 -13
-7 -19 0 -19 13 0 13 -205 0 -231 -10 -17 -7 -19 22 -19 28 0 39 -8 76 -55 23
-30 42 -60 42 -65 0 -6 4 -10 8 -10 5 0 24 -21 42 -47 24 -34 35 -42 39 -31 4
11 131 -116 419 -419 l412 -434 0 -47 c1 -80 24 -171 49 -189 13 -8 32 -36 43
-62 15 -32 22 -41 25 -28 6 23 26 22 48 -3 28 -31 35 -24 35 34 0 30 4 57 9
60 12 8 111 -99 111 -121 0 -26 -172 -192 -417 -402 l-213 -182 0 -204 0 -204
68 -20 c224 -66 389 -111 407 -111 11 0 49 29 87 67 48 47 68 62 68 49 0 -15
4 -14 31 8 17 14 39 26 50 26 11 0 23 10 28 22 8 21 38 52 99 103 20 16 25 17
32 5 6 -8 10 -25 10 -37 0 -19 6 -23 33 -23 17 -1 60 -2 93 -3 l62 -2 31 122
c18 70 31 148 31 183 0 33 3 60 8 60 4 0 33 -15 65 -33 l59 -32 35 -145 c20
-80 37 -151 39 -157 2 -9 31 -13 99 -13 84 0 95 2 95 18 0 13 42 197 65 288 3
12 108 74 125 74 6 0 10 -25 10 -57 0 -31 11 -99 24 -152 14 -53 27 -108 30
-124 6 -25 10 -27 59 -28 28 0 71 -1 94 -2 40 -2 41 -1 47 35 4 21 10 38 14
38 15 0 121 -100 127 -120 4 -11 13 -20 21 -20 9 0 31 -12 50 -26 22 -17 34
-22 34 -13 0 7 28 -15 63 -49 42 -42 70 -62 87 -62 20 0 230 57 420 114 l45
13 3 211 2 211 -212 182 c-247 211 -408 366 -408 392 0 10 23 43 52 73 58 61
68 59 68 -18 0 -27 3 -48 7 -48 4 0 17 10 31 23 23 21 24 22 38 3 13 -18 15
-16 33 27 11 25 30 53 44 61 26 18 47 102 47 190 0 43 4 51 60 109 33 34 218
229 412 433 214 225 356 367 360 360 5 -7 11 -6 20 6 7 9 44 57 82 107 63 83
73 91 103 91 l34 0 -16 30 c-22 42 -22 220 1 220 14 0 14 2 0 22 -13 18 -16
55 -16 188 0 197 -20 259 -33 105 l-4 -40 -1 43 c-1 23 -4 42 -6 42 -3 0 -55
-25 -118 -56 -62 -31 -151 -74 -198 -94 -47 -21 -212 -97 -367 -168 l-283
-130 -1 77 c0 126 -29 447 -55 631 -16 111 -70 339 -84 354 -9 9 -12 -1 -50
-152 -46 -182 -90 -611 -90 -873 l0 -167 -36 -12 c-19 -7 -37 -10 -39 -8 -2 1
-96 138 -209 303 -197 287 -206 302 -206 348 0 35 4 47 15 47 9 0 15 9 15 24
0 13 -7 26 -15 30 -13 5 -15 56 -15 376 0 203 3 370 6 370 9 0 366 59 392 65
21 5 22 10 22 98 l-1 92 -209 270 -210 270 0 155 c0 137 -4 177 -35 333 -19
97 -44 195 -55 217 -17 33 -28 109 -60 403 -38 353 -69 569 -109 772 -24 120
-113 445 -122 445 -4 0 -27 -75 -53 -167z"/>
</g>
</svg>
