<?xml version="1.0" standalone="no"?>
<!DOCTYPE svg PUBLIC "-//W3C//DTD SVG 20010904//EN"
 "http://www.w3.org/TR/2001/REC-SVG-20010904/DTD/svg10.dtd">
<svg version="1.0" xmlns="http://www.w3.org/2000/svg"
 width="602.000000pt" height="483.000000pt" viewBox="0 0 602.000000 483.000000"
 preserveAspectRatio="xMidYMid meet">
<metadata>
Created by potrace 1.15, written by Peter Selinger 2001-2017
</metadata>
<g transform="translate(0.000000,483.000000) scale(0.100000,-0.100000)"
fill="#000000" stroke="none">
<path d="M2729 4801 c-3 -8 -108 -13 -349 -16 -190 -2 -365 -9 -390 -14 -25
-6 -92 -10 -150 -11 -72 0 -101 -3 -94 -10 7 -7 130 -15 310 -21 164 -5 308
-11 319 -14 11 -2 -63 -2 -165 -1 -102 2 -180 2 -175 0 25 -9 661 -44 800 -44
97 0 155 -4 155 -10 0 -6 -36 -10 -88 -10 -51 0 -93 -5 -99 -11 -6 -6 -41 -13
-77 -16 -54 -3 -71 -9 -95 -31 -43 -39 -61 -99 -61 -203 l0 -89 -70 0 -70 0 0
-30 c0 -30 0 -30 59 -30 33 0 63 5 66 11 4 6 1 10 -6 8 -25 -3 -39 1 -39 11 0
6 14 10 30 10 24 0 30 -4 30 -20 0 -21 3 -21 433 -18 l432 3 -3 25 c-2 19 0
22 10 12 6 -6 20 -12 29 -12 9 0 20 -7 23 -16 4 -11 17 -14 48 -12 39 3 43 6
46 31 l3 27 -70 0 -71 0 0 111 c0 111 -9 149 -35 149 -8 0 -19 8 -24 18 -6 9
-11 13 -11 7 0 -5 -5 -3 -11 5 -9 13 -10 12 -5 -2 3 -10 2 -19 -2 -22 -8 -5
-48 25 -49 38 0 4 -6 17 -14 27 -12 17 -27 19 -136 19 -67 0 -124 4 -127 8 -3
5 119 12 272 16 389 11 469 22 182 26 l-225 3 140 7 c77 4 295 11 485 15 190
5 356 12 370 16 14 5 -198 6 -470 4 -317 -2 -436 0 -330 4 294 14 441 23 437
28 -3 2 -216 4 -475 3 -371 0 -471 2 -474 12 -6 17 -214 25 -219 9z m322 -185
c21 -5 39 -4 43 2 7 12 80 -1 101 -18 25 -21 13 -92 -13 -76 -6 3 -15 -1 -20
-10 -6 -11 -11 -13 -16 -5 -5 8 -16 6 -38 -5 -30 -16 -128 -26 -128 -13 0 4
-10 7 -22 7 -34 1 -118 25 -118 34 0 5 -9 8 -19 8 -24 0 -81 49 -65 56 6 3 19
10 29 17 19 14 202 16 266 3z"/>
<path d="M1436 4170 c18 -39 46 -162 51 -223 l6 -69 -59 7 c-67 8 -209 42
-236 56 -17 9 -18 1 -18 -131 0 -77 2 -140 5 -140 2 0 51 13 107 29 57 16 125
32 152 35 l49 6 -6 -68 c-3 -38 -15 -95 -27 -128 -12 -32 -24 -69 -27 -81 l-5
-23 146 0 c80 0 146 2 146 4 0 4 -27 72 -40 101 -17 37 -30 100 -30 144 l0 44
59 -6 c50 -6 119 -22 234 -54 16 -5 17 6 17 137 0 131 -1 142 -17 137 -10 -2
-56 -16 -103 -30 -47 -13 -109 -28 -139 -32 l-54 -7 6 73 c3 41 17 109 31 152
14 43 26 80 26 83 0 3 -63 4 -140 3 -123 -3 -140 -5 -134 -19z"/>
<path d="M4330 4183 c0 -2 7 -19 15 -39 20 -47 45 -174 45 -225 l0 -41 -52 7
c-70 9 -214 42 -239 55 -18 10 -19 6 -19 -131 l0 -141 23 7 c70 22 198 53 240
58 l47 7 0 -35 c0 -46 -17 -128 -41 -193 -10 -29 -19 -57 -19 -62 0 -11 272
-14 282 -4 6 5 -7 43 -37 110 -15 32 -37 162 -30 174 7 11 129 -9 221 -35 46
-14 87 -25 90 -25 6 0 3 186 -4 243 -3 31 -8 37 -21 32 -40 -17 -189 -55 -238
-61 -48 -6 -53 -4 -53 12 1 43 29 173 49 224 11 30 21 57 21 60 0 3 -63 5
-140 5 -77 1 -140 -1 -140 -2z"/>
<path d="M260 4160 c-8 -5 -15 -13 -15 -17 0 -4 -10 -22 -23 -40 -20 -28 -22
-43 -22 -140 0 -59 5 -137 10 -172 9 -54 8 -67 -6 -90 -31 -47 -98 -126 -128
-151 -18 -15 -5 6 31 51 34 41 68 81 77 88 32 27 17 34 -64 29 -118 -7 -119
-9 -120 -220 0 -210 -11 -198 185 -198 96 0 145 4 153 12 9 9 12 9 12 0 0 -7
5 -12 11 -12 6 0 9 9 6 20 -3 11 -1 18 4 14 5 -3 9 -13 9 -22 0 -13 2 -13 16
4 11 13 14 14 11 3 -3 -9 1 -16 8 -16 8 0 12 9 9 24 -2 13 0 23 6 23 5 0 10
-11 10 -25 0 -18 5 -25 19 -25 13 0 21 -8 23 -22 3 -22 6 -23 90 -19 85 3 87
2 93 -20 3 -13 12 -53 20 -89 8 -36 19 -66 25 -68 5 -2 10 -12 10 -22 0 -10 5
-22 10 -25 6 -4 10 5 10 19 0 21 5 26 28 27 119 3 1893 1 1897 -3 12 -12 17
-128 6 -142 -7 -8 -10 -27 -7 -43 2 -15 5 -43 5 -60 1 -20 6 -33 14 -33 10 0
16 -38 25 -147 22 -263 36 -397 40 -385 2 7 12 12 22 12 10 0 21 7 24 16 4 9
9 14 12 11 4 -3 -3 -22 -15 -42 -12 -22 -21 -55 -22 -83 -1 -42 -2 -44 -9 -17
-9 37 -12 10 -4 -34 4 -17 10 -28 15 -25 5 3 9 -7 9 -23 l1 -28 14 33 c8 17
18 32 23 32 5 0 14 10 21 23 9 16 10 17 5 2 -16 -48 -16 -75 0 -75 19 0 36 30
36 64 0 13 5 37 11 53 10 25 12 26 18 8 8 -19 8 -19 19 0 23 40 11 -2 -18 -60
-16 -32 -26 -63 -24 -67 3 -4 0 -16 -5 -26 -7 -13 -7 -22 1 -30 9 -9 9 -15 -1
-24 -10 -11 -11 -10 -6 5 5 11 2 17 -6 17 -21 -1 -69 -87 -69 -123 0 -24 3
-28 10 -17 5 8 7 24 5 35 -3 11 -2 14 1 7 5 -10 11 -7 23 12 l17 25 1 -35 c1
-26 -2 -34 -13 -30 -18 7 -34 -24 -34 -68 0 -19 -4 -36 -8 -38 -5 -2 -6 -25
-2 -53 4 -27 8 -43 9 -35 4 25 19 -20 20 -57 1 -17 -3 -34 -8 -37 -4 -3 -7
-26 -5 -51 3 -25 0 -45 -6 -45 -5 0 -7 8 -3 17 5 15 3 16 -7 6 -10 -9 -10 -16
-2 -25 7 -8 7 -26 2 -48 -4 -19 -8 -29 -9 -23 -1 18 -23 12 -40 -10 -7 -10
-36 -62 -63 -115 -54 -106 -64 -120 -54 -82 6 22 5 21 -10 -5 -9 -16 -20 -32
-24 -35 -4 -3 -10 -14 -13 -25 -2 -11 -6 32 -7 95 -2 63 -4 104 -7 90 -9 -62
-14 -74 -23 -60 -6 10 -13 5 -29 -21 -28 -45 -28 -73 0 -39 11 14 17 19 13 11
-4 -8 -7 -28 -6 -45 0 -17 -5 -40 -12 -51 -15 -23 -27 -65 -19 -65 3 0 12 8
20 17 13 16 13 16 7 -7 -12 -46 -119 -251 -122 -235 -4 18 -26 15 -28 -3 -3
-26 -6 -26 -14 -2 -7 22 -8 20 -9 -14 -1 -22 -8 -47 -16 -56 -9 -10 -18 -28
-20 -40 -3 -13 -10 -27 -17 -32 -7 -4 -9 -8 -4 -8 5 0 4 -6 -1 -12 -6 -7 -10
-21 -10 -30 0 -17 20 -18 266 -19 209 -1 256 -4 219 -12 -27 -6 -48 -15 -48
-22 0 -14 -73 -164 -93 -190 -14 -18 -15 -18 -12 5 2 14 15 47 29 74 14 27 26
55 26 62 0 8 4 14 8 14 5 0 14 11 20 25 14 30 28 28 -240 25 l-177 -1 -7 25
c-6 25 -24 37 -24 16 0 -5 -4 -10 -9 -10 -10 0 -13 88 -4 104 4 6 9 31 10 56
6 81 14 115 24 99 5 -8 9 -9 9 -3 0 5 6 19 14 29 13 18 14 18 9 -8 -7 -34 19
-38 35 -5 10 22 11 22 13 -7 2 -22 4 -16 9 20 l7 50 2 -50 c3 -90 23 -23 22
75 -1 90 5 124 19 115 10 -6 33 30 48 75 l12 35 -35 -40 c-64 -73 -85 -101
-88 -123 -3 -24 -17 -42 -17 -24 0 23 -16 11 -53 -38 -20 -27 -37 -61 -37 -75
0 -16 -6 -25 -15 -25 -10 0 -15 -10 -15 -30 0 -22 -5 -30 -18 -30 -13 0 -18
-8 -18 -28 -2 -119 -7 -175 -14 -147 l-8 30 -1 -32 -1 -33 51 0 c61 0 58 -19
-4 -21 -32 -2 -35 -3 -14 -6 24 -4 28 -8 22 -26 -6 -21 -11 -41 -16 -62 -1 -5
-5 10 -9 35 l-7 45 -1 -44 c-2 -31 -6 -42 -15 -38 -8 3 -14 -5 -15 -22 -1 -21
0 -23 9 -11 9 13 10 13 5 0 -3 -8 -9 -23 -12 -32 -4 -10 -10 -18 -15 -18 -5 0
-6 7 -3 15 11 26 -6 16 -27 -18 -18 -28 -20 -29 -15 -7 5 21 4 21 -9 -5 -7
-16 -11 -38 -8 -49 4 -13 2 -16 -7 -11 -9 6 -11 4 -6 -4 5 -7 0 -18 -10 -26
-17 -12 -15 -14 21 -23 67 -17 111 -23 96 -13 -9 6 -10 11 -2 15 6 4 11 4 11
-1 0 -4 9 10 20 32 11 22 18 47 14 57 -3 9 2 30 10 45 13 24 15 25 16 8 1 -11
4 -15 6 -8 3 7 11 10 19 7 10 -4 16 6 20 33 10 64 23 84 20 32 -3 -43 -29
-120 -61 -181 -19 -36 -18 -38 14 -38 22 0 33 9 55 46 15 26 31 44 34 41 3 -4
-4 -22 -15 -41 l-20 -34 24 -5 c56 -10 226 -8 240 4 8 6 14 31 15 58 1 25 3
38 6 28 2 -9 9 -15 14 -12 5 4 9 -1 9 -9 0 -22 -20 -70 -32 -77 -6 -4 11 -6
38 -5 29 0 55 7 64 16 8 9 13 11 10 5 -3 -6 5 0 17 14 12 14 19 29 16 34 -3 6
-1 7 5 3 13 -8 35 28 24 39 -4 5 -2 5 5 1 14 -8 36 27 25 39 -4 5 -2 5 5 1 14
-8 45 33 36 47 -3 6 -1 7 5 3 5 -3 19 6 30 21 18 24 24 26 81 24 l61 -2 0 63
c0 35 5 70 10 78 7 10 10 -9 10 -63 l0 -79 61 4 61 3 94 -121 93 -121 91 -1
c63 0 90 3 90 11 0 9 2 9 8 0 6 -10 61 -12 224 -9 205 3 217 4 259 27 24 13
56 43 72 65 24 35 29 51 29 101 0 75 -10 95 -115 225 -45 57 -92 117 -104 133
l-22 30 1 -125 c0 -69 3 -111 5 -95 6 38 23 58 23 26 0 -12 4 -19 10 -16 13 8
13 3 0 -30 -6 -16 -14 -23 -22 -19 -6 4 -8 3 -4 -4 3 -6 1 -23 -5 -39 -6 -15
-15 -37 -19 -48 -23 -64 -64 -138 -68 -122 -2 9 -8 14 -13 11 -7 -4 -7 0 0 12
5 11 21 45 35 77 14 33 30 56 36 52 6 -4 10 6 10 24 0 29 -3 31 -35 31 -19 0
-35 5 -35 10 0 6 16 10 35 10 l35 0 0 70 c0 39 -2 70 -5 70 -2 0 -12 -14 -21
-32 -14 -28 -17 -29 -26 -14 -5 9 -7 25 -4 34 5 13 3 13 -9 -2 -11 -14 -15
-16 -15 -5 -1 8 -7 3 -14 -10 -10 -17 -15 -20 -19 -10 -3 8 -8 0 -12 -19 -4
-18 -12 -35 -17 -38 -6 -4 -7 3 -3 17 8 26 8 26 6 52 -1 11 -6 15 -13 11 -8
-5 -9 -2 -5 9 3 9 2 19 -3 22 -6 4 -10 14 -10 24 0 10 -7 18 -15 18 -8 0 -15
-7 -15 -16 0 -14 -2 -14 -10 -1 -8 12 -10 10 -11 -10 -1 -14 -3 -37 -4 -53 -3
-39 -35 -105 -54 -110 -9 -3 26 -5 77 -6 149 -2 105 -18 -55 -20 -176 -3 -147
-4 -263 7 l-95 9 152 2 c84 0 152 4 152 9 -4 24 2 42 13 36 8 -5 9 -2 5 10 -4
9 -3 15 2 12 4 -3 17 19 29 49 11 31 16 57 12 60 -5 3 -6 14 -3 25 4 15 11 19
24 15 17 -6 19 -1 19 49 0 31 4 56 9 56 5 0 13 19 19 43 12 47 2 113 -16 110
-7 -2 -12 3 -12 10 0 6 -15 28 -33 49 l-33 36 -20 -50 c-19 -49 -51 -92 -39
-52 4 10 -1 6 -10 -9 -9 -15 -20 -25 -25 -22 -6 4 -7 -1 -3 -11 4 -11 3 -15
-5 -11 -20 13 -25 130 -9 201 8 36 11 66 6 66 -5 0 -14 11 -19 25 -5 14 -14
25 -20 25 -5 0 -10 5 -10 10 0 10 -32 50 -78 98 -22 23 -24 23 -43 6 -18 -17
-19 -16 -20 12 0 16 -3 22 -6 14 -3 -8 -9 -17 -12 -20 -4 -3 -12 -17 -18 -32
-13 -29 -31 -38 -30 -15 1 35 -4 58 -12 53 -5 -4 -20 -2 -33 3 -23 10 -23 10
5 10 23 1 27 5 29 34 4 84 8 124 28 287 12 96 19 191 16 210 -3 19 -2 29 2 23
8 -12 22 131 77 746 14 151 27 276 30 279 3 4 1747 6 1893 3 29 -1 32 -4 32
-31 0 -16 5 -30 10 -30 6 0 10 14 10 30 0 17 4 30 9 30 5 0 19 41 31 91 l23
91 86 -3 c83 -4 86 -3 89 19 3 21 7 22 112 22 77 0 110 4 113 13 4 10 6 10 6
0 1 -14 41 -18 41 -4 0 13 80 101 92 101 6 0 17 8 24 18 7 9 14 12 14 6 0 -6
-10 -24 -22 -40 -12 -16 -15 -23 -6 -16 21 16 33 -1 13 -18 -8 -7 -12 -16 -9
-21 3 -5 2 -8 -3 -7 -4 2 -19 -5 -33 -15 l-25 -18 60 2 c33 1 70 8 83 15 20
13 22 21 21 112 0 61 -3 90 -9 77 -4 -12 -15 -27 -23 -34 -14 -11 -16 -10 -12
11 3 12 14 30 25 40 21 17 29 65 9 52 -8 -5 -8 -1 0 14 15 28 14 84 -2 106
-11 15 -32 20 -110 24 l-97 5 6 56 c3 31 7 62 10 69 2 6 -1 12 -6 12 -6 0 -10
-10 -11 -22 -1 -39 -9 -72 -20 -83 -8 -7 -10 8 -8 50 2 33 0 66 -4 72 -4 7 -3
22 4 34 8 16 8 23 -1 29 -6 4 -11 10 -11 14 3 24 0 28 -14 16 -13 -11 -15 -8
-15 17 0 19 -5 30 -15 30 -8 0 -11 -5 -8 -10 4 -6 -2 -8 -15 -5 -14 4 -32 -4
-57 -27 l-36 -34 -11 25 c-9 19 -18 24 -34 21 -16 -3 -24 2 -28 16 -2 10 -9
16 -15 12 -6 -3 -11 -2 -11 3 0 12 -49 22 -55 12 -5 -8 -48 -5 -64 4 -5 4 -13
2 -16 -4 -5 -8 -11 -7 -21 1 -8 7 -14 7 -14 1 0 -13 -59 -21 -67 -8 -4 5 -10
1 -14 -10 -7 -17 -8 -16 -9 6 -2 25 -2 25 -15 -5 -12 -25 -19 -22 -17 5 0 3
-8 7 -19 7 -10 1 -19 -3 -19 -10 0 -8 -3 -8 -12 1 -17 17 -28 15 -28 -5 0 -9
-3 -14 -6 -10 -7 7 -28 -12 -37 -33 -3 -9 -6 -6 -6 10 -1 18 -4 21 -10 11 -7
-11 -11 -9 -20 8 -7 12 -16 19 -22 15 -5 -3 -16 0 -24 6 -12 10 -15 9 -15 -4
0 -9 -4 -16 -10 -16 -5 0 -10 9 -10 21 0 11 -4 18 -9 15 -5 -4 -11 0 -14 6 -3
7 -7 -98 -9 -235 l-3 -247 44 0 c24 0 41 -3 38 -7 -4 -3 -23 -6 -42 -5 l-35 1
0 -124 0 -125 -370 0 -370 0 -48 30 c-26 16 -74 41 -105 55 l-57 26 0 69 c0
57 -3 69 -17 73 -17 4 -17 5 0 6 16 1 17 19 17 237 0 142 -4 233 -9 229 -5 -3
-12 -1 -16 5 -11 18 -25 11 -26 -12 0 -22 -1 -22 -9 -3 -7 19 -8 19 -15 2 -4
-10 -14 -16 -21 -13 -7 3 -20 -5 -29 -17 -8 -12 -15 -17 -15 -12 0 6 -5 3 -10
-5 -8 -13 -10 -12 -10 3 0 10 -4 15 -10 12 -5 -3 -10 4 -10 16 0 18 -4 20 -22
14 -38 -12 -83 -12 -90 -1 -4 6 -8 -5 -9 -24 -1 -20 -3 -26 -6 -15 -10 44 -12
46 -33 35 -15 -8 -25 -8 -34 -1 -7 6 -15 8 -18 6 -12 -12 -48 -13 -48 -2 0 7
-8 -4 -18 -23 l-17 -35 -5 30 c-6 28 -6 29 -14 7 -4 -12 -12 -20 -17 -17 -14
9 -23 -22 -28 -105 l-2 -25 -9 23 c-5 12 -7 39 -4 60 3 21 -1 51 -8 67 -12 27
-13 20 -18 -90 l-6 -120 -3 135 c-1 74 -5 128 -9 120 -5 -11 -24 -15 -77 -15
-77 0 -105 -17 -120 -72 -7 -24 -9 -25 -13 -8 -2 11 -8 24 -13 30 -5 5 -10 34
-11 65 -1 30 -5 1 -8 -65 l-6 -120 -3 130 c-2 72 -6 117 -8 100 -7 -42 -21
-56 -54 -51 -16 2 -30 -1 -33 -7 -3 -8 -8 -7 -15 3 -9 12 -11 11 -11 -7 0 -24
-22 -43 -28 -25 -2 7 -12 12 -23 12 -10 0 -19 5 -19 10 0 6 -11 10 -24 10 -14
0 -28 5 -32 12 -5 8 -10 6 -15 -8 -7 -17 -8 -16 -9 6 0 22 -2 23 -11 8 -5 -10
-16 -18 -24 -18 -8 0 -19 -10 -26 -21 -9 -17 -13 -19 -20 -8 -6 10 -9 6 -9
-13 0 -16 -4 -28 -10 -28 -5 0 -10 5 -10 11 0 5 -5 7 -11 3 -8 -4 -8 -9 0 -17
6 -6 11 -23 11 -39 0 -25 -3 -27 -34 -26 -31 1 -34 3 -25 20 5 10 14 18 20 18
6 0 7 -5 3 -12 -4 -7 -3 -8 4 -4 9 5 9 13 2 26 -5 10 -10 29 -10 42 l-1 23
-13 -24 -13 -23 -6 22 c-3 12 -10 19 -16 15 -6 -3 -11 -1 -11 4 0 6 -6 11 -14
11 -8 0 -17 12 -19 28 -2 15 -5 0 -7 -33 l-3 -60 -6 45 -6 45 -14 -47 c-14
-48 -31 -56 -31 -15 0 15 -3 18 -8 9 -11 -16 -36 -7 -70 24 -18 18 -37 24 -68
24 -35 0 -44 4 -50 23 -7 21 -7 21 -15 2 l-8 -20 -1 20 c0 20 -1 20 -18 -1
-20 -25 -52 -38 -52 -22 0 6 -9 1 -19 -11 -10 -12 -21 -17 -23 -11 -2 6 -18
11 -36 13 -25 1 -34 8 -39 25 -4 17 -8 20 -14 11 -6 -10 -12 -9 -28 5 -21 19
-21 19 -22 0 -1 -11 -4 -7 -9 11 l-8 30 -1 -27 c-1 -28 -20 -49 -22 -26 -6 49
-17 -140 -18 -299 -1 -177 0 -193 17 -194 10 0 12 -3 5 -6 -9 -3 -13 -27 -13
-72 l0 -67 -62 -29 c-35 -16 -84 -42 -109 -57 l-46 -28 -367 0 -366 0 0 124 0
125 -47 4 -48 3 48 2 47 2 0 228 c0 216 -1 228 -20 245 -11 9 -25 17 -30 17
-6 0 -10 5 -10 10 0 7 -6 7 -17 1 -10 -5 -36 -11 -58 -14 -21 -3 -44 -13 -51
-21 -11 -15 -12 -15 -18 -1 -3 9 -10 14 -15 11 -5 -3 -20 3 -34 14 -14 11 -30
20 -35 20 -6 0 -13 6 -15 13 -3 6 -6 3 -6 -8 -1 -17 -3 -17 -11 -5 -8 12 -10
10 -10 -9 0 -13 -3 -21 -7 -17 -4 4 -13 -8 -19 -26 l-12 -33 -7 28 c-6 22 -12
27 -26 24 -11 -3 -22 -1 -25 4 -3 5 -10 7 -15 3 -6 -3 -35 -3 -65 1 -46 5 -54
9 -55 28 0 21 -1 21 -9 2 -8 -18 -9 -18 -10 5 -1 25 -1 24 -15 -5 -7 -16 -14
-24 -14 -18 -1 16 -63 5 -74 -14 -4 -7 -19 -13 -32 -13 -21 0 -25 5 -25 29 0
24 -5 30 -30 35 -25 5 -30 10 -30 35 0 34 -10 44 -30 31z m5390 -610 c0 -6 -3
-9 -7 -9 -23 4 -43 -2 -43 -13 0 -7 -10 -22 -23 -33 -13 -11 -26 -28 -30 -38
-4 -10 -11 -16 -15 -13 -14 8 -43 -34 -49 -72 -5 -27 -8 -32 -13 -18 -6 17
-11 15 -44 -18 -23 -24 -43 -36 -52 -32 -9 3 -22 6 -30 6 -12 0 -11 6 6 30 12
17 26 30 32 30 6 0 3 -9 -7 -20 -10 -11 -15 -20 -11 -20 4 0 19 14 33 30 26
32 55 43 32 13 -12 -16 -11 -16 3 -3 19 18 31 77 17 82 -6 2 -1 12 10 22 21
19 21 19 21 0 1 -18 1 -18 15 0 7 10 18 15 24 11 6 -3 11 -1 11 5 0 6 7 18 15
27 8 8 13 18 11 22 -8 13 -167 3 -185 -12 -19 -16 -55 -11 -47 8 4 10 -23 13
-127 14 -72 1 -133 4 -136 6 -2 3 129 5 292 5 191 0 297 -4 297 -10z m-2482
-2229 c-3 -34 -17 -82 -35 -121 -17 -36 -45 -99 -62 -140 -54 -128 -85 -194
-97 -210 -18 -24 -26 -71 -14 -85 9 -10 9 -19 0 -32 -10 -15 -11 -15 -6 -1 3
9 0 18 -6 20 -6 2 -11 19 -11 36 0 22 -4 31 -13 28 -15 -6 -12 29 11 109 9 31
14 59 11 62 -8 8 14 44 23 38 12 -7 26 13 42 57 8 25 16 34 21 25 4 -6 8 -7 8
-2 4 54 11 89 18 99 5 6 15 28 22 49 6 20 16 35 21 32 8 -6 13 9 10 29 -3 15
43 75 52 69 5 -3 7 -31 5 -62z"/>
<path d="M1998 668 c-86 -108 -102 -176 -62 -272 5 -15 4 -17 -6 -11 -8 5 -11
4 -6 -3 3 -6 15 -9 26 -7 12 2 18 0 15 -6 -4 -5 -2 -9 4 -9 5 0 17 18 27 40
10 21 21 37 26 34 4 -3 5 2 2 10 -3 8 8 46 25 84 33 74 40 109 18 77 -11 -14
-16 -15 -22 -5 -5 8 -4 11 2 7 6 -4 13 2 16 13 3 11 1 20 -4 20 -4 0 -5 8 -2
18 6 16 6 16 -10 0 -9 -9 -17 -21 -17 -27 0 -6 -9 -15 -20 -21 -21 -11 -27 -1
-11 16 11 10 43 84 37 84 -2 0 -19 -19 -38 -42z"/>
</g>
</svg>
